<svg width="100" height="100" viewBox="0 0 100 100" xmlns="http://www.w3.org/2000/svg">
  <!-- Bird silhouette flying above wave -->
  <!-- Bird body and wings -->
  <path d="M 35 25 Q 40 18 45 22 Q 48 20 50 25 Q 52 20 55 22 Q 60 18 65 25 L 62 32 Q 58 38 55 35 Q 52 40 50 38 Q 48 40 45 35 Q 42 38 38 32 Z" fill="#1e3a5f" stroke="none"/>
  <!-- Bird eye (white dot) -->
  <circle cx="52" cy="28" r="2.5" fill="white"/>
  <!-- Bird beak -->
  <path d="M 62 28 L 65 26 L 65 30 Z" fill="#1e3a5f"/>
  <!-- Wave/crescent shape -->
  <path d="M 20 75 Q 25 65 35 70 Q 45 75 55 70 Q 65 75 75 70 Q 82 65 82 75 Q 82 85 75 80 Q 65 85 55 80 Q 45 85 35 80 Q 25 85 20 80 Z" fill="#1e3a5f"/>
  <!-- Small dot in wave (upper right curve) -->
  <circle cx="70" cy="72" r="3" fill="#1e3a5f"/>
</svg>
